<svg xmlns="http://www.w3.org/2000/svg" width="900" height="560"><defs><marker id="arrow" markerWidth="10" markerHeight="10" refX="7" refY="3" orient="auto"><path d="M0,0 L0,6 L7,3 z" fill="#334"/></marker></defs><rect width="100%" height="100%" fill="white"/><text x="40" y="38" font-size="20" font-weight="bold">Conditional Multi-Agent Workflow</text><line x1="90.0" y1="403.2" x2="225.0" y2="403.2" stroke="#334" stroke-width="2" marker-end="url(#arrow)"/><line x1="225.0" y1="403.2" x2="360.0" y2="403.2" stroke="#334" stroke-width="2" marker-end="url(#arrow)"/><line x1="360.0" y1="403.2" x2="495.00000000000006" y2="403.2" stroke="#334" stroke-width="2" marker-end="url(#arrow)"/><line x1="495.00000000000006" y1="403.2" x2="225.0" y2="403.2" stroke="#334" stroke-width="2" marker-end="url(#arrow)"/><text x="360.0" y="395.2" font-size="11" fill="#334">revise</text><line x1="495.00000000000006" y1="403.2" x2="630.0" y2="403.2" stroke="#334" stroke-width="2" marker-end="url(#arrow)"/><text x="562.5" y="395.2" font-size="11" fill="#334">accept</text><line x1="630.0" y1="403.2" x2="765.0" y2="403.2" stroke="#334" stroke-width="2" marker-end="url(#arrow)"/><line x1="765.0" y1="403.2" x2="315.0" y2="196.0" stroke="#334" stroke-width="2" marker-end="url(#arrow)"/><line x1="315.0" y1="196.0" x2="495.00000000000006" y2="196.0" stroke="#334" stroke-width="2" marker-end="url(#arrow)"/><line x1="495.00000000000006" y1="196.0" x2="315.0" y2="196.0" stroke="#334" stroke-width="2" marker-end="url(#arrow)"/><text x="405.0" y="188.0" font-size="11" fill="#334">low score</text><line x1="495.00000000000006" y1="196.0" x2="675.0" y2="196.0" stroke="#334" stroke-width="2" marker-end="url(#arrow)"/><text x="585.0" y="188.0" font-size="11" fill="#334">pass</text><line x1="675.0" y1="196.0" x2="810.0" y2="196.0" stroke="#334" stroke-width="2" marker-end="url(#arrow)"/><rect x="14.0" y="379.2" rx="8" ry="8" width="152" height="48" fill="#2F6F73" stroke="#1D3F42"/><text x="90.0" y="408.2" text-anchor="middle" font-size="12" fill="white">Planner</text><rect x="149.0" y="379.2" rx="8" ry="8" width="152" height="48" fill="#2F6F73" stroke="#1D3F42"/><text x="225.0" y="408.2" text-anchor="middle" font-size="12" fill="white">Research</text><rect x="284.0" y="379.2" rx="8" ry="8" width="152" height="48" fill="#2F6F73" stroke="#1D3F42"/><text x="360.0" y="408.2" text-anchor="middle" font-size="12" fill="white">Analyst</text><rect x="419.00000000000006" y="379.2" rx="8" ry="8" width="152" height="48" fill="#2F6F73" stroke="#1D3F42"/><text x="495.00000000000006" y="408.2" text-anchor="middle" font-size="12" fill="white">Critic</text><rect x="554.0" y="379.2" rx="8" ry="8" width="152" height="48" fill="#2F6F73" stroke="#1D3F42"/><text x="630.0" y="408.2" text-anchor="middle" font-size="12" fill="white">Fact Check</text><rect x="689.0" y="379.2" rx="8" ry="8" width="152" height="48" fill="#2F6F73" stroke="#1D3F42"/><text x="765.0" y="408.2" text-anchor="middle" font-size="12" fill="white">Visualize</text><rect x="239.0" y="172.0" rx="8" ry="8" width="152" height="48" fill="#2F6F73" stroke="#1D3F42"/><text x="315.0" y="201.0" text-anchor="middle" font-size="12" fill="white">Report</text><rect x="419.00000000000006" y="172.0" rx="8" ry="8" width="152" height="48" fill="#2F6F73" stroke="#1D3F42"/><text x="495.00000000000006" y="201.0" text-anchor="middle" font-size="12" fill="white">Evaluator</text><rect x="599.0" y="172.0" rx="8" ry="8" width="152" height="48" fill="#2F6F73" stroke="#1D3F42"/><text x="675.0" y="201.0" text-anchor="middle" font-size="12" fill="white">Presentation</text><rect x="734.0" y="172.0" rx="8" ry="8" width="152" height="48" fill="#2F6F73" stroke="#1D3F42"/><text x="810.0" y="201.0" text-anchor="middle" font-size="12" fill="white">Memory</text></svg>