<svg xmlns="http://www.w3.org/2000/svg" width="900" height="560"><defs><marker id="arrow" markerWidth="10" markerHeight="10" refX="7" refY="3" orient="auto"><path d="M0,0 L0,6 L7,3 z" fill="#334"/></marker></defs><rect width="100%" height="100%" fill="white"/><text x="40" y="38" font-size="20" font-weight="bold">Overall System Architecture</text><line x1="108.0" y1="392.0" x2="270.0" y2="392.0" stroke="#334" stroke-width="2" marker-end="url(#arrow)"/><line x1="270.0" y1="392.0" x2="450.0" y2="392.0" stroke="#334" stroke-width="2" marker-end="url(#arrow)"/><line x1="450.0" y1="392.0" x2="630.0" y2="392.0" stroke="#334" stroke-width="2" marker-end="url(#arrow)"/><line x1="630.0" y1="392.0" x2="792.0" y2="392.0" stroke="#334" stroke-width="2" marker-end="url(#arrow)"/><line x1="450.0" y1="392.0" x2="450.0" y2="196.0" stroke="#334" stroke-width="2" marker-end="url(#arrow)"/><text x="450.0" y="285.99999999999994" font-size="11" fill="#334">state</text><line x1="630.0" y1="392.0" x2="675.0" y2="196.0" stroke="#334" stroke-width="2" marker-end="url(#arrow)"/><text x="652.5" y="285.99999999999994" font-size="11" fill="#334">artifacts</text><rect x="32.0" y="368.0" rx="8" ry="8" width="152" height="48" fill="#2F6F73" stroke="#1D3F42"/><text x="108.0" y="397.0" text-anchor="middle" font-size="12" fill="white">Streamlit UI</text><rect x="194.0" y="368.0" rx="8" ry="8" width="152" height="48" fill="#2F6F73" stroke="#1D3F42"/><text x="270.0" y="397.0" text-anchor="middle" font-size="12" fill="white">FastAPI</text><rect x="374.0" y="368.0" rx="8" ry="8" width="152" height="48" fill="#2F6F73" stroke="#1D3F42"/><text x="450.0" y="397.0" text-anchor="middle" font-size="12" fill="white">LangGraph</text><rect x="554.0" y="368.0" rx="8" ry="8" width="152" height="48" fill="#2F6F73" stroke="#1D3F42"/><text x="630.0" y="397.0" text-anchor="middle" font-size="12" fill="white">Agent Layer</text><rect x="716.0" y="368.0" rx="8" ry="8" width="152" height="48" fill="#2F6F73" stroke="#1D3F42"/><text x="792.0" y="397.0" text-anchor="middle" font-size="12" fill="white">Tool Layer</text><rect x="374.0" y="172.0" rx="8" ry="8" width="152" height="48" fill="#2F6F73" stroke="#1D3F42"/><text x="450.0" y="201.0" text-anchor="middle" font-size="12" fill="white">SQLite Memory</text><rect x="599.0" y="172.0" rx="8" ry="8" width="152" height="48" fill="#2F6F73" stroke="#1D3F42"/><text x="675.0" y="201.0" text-anchor="middle" font-size="12" fill="white">Reports & Slides</text></svg>