<svg xmlns="http://www.w3.org/2000/svg" width="760" height="456"><rect width="100%" height="100%" fill="white"/><text x="20" y="35" font-size="18" font-weight="bold">Evidence Sources by Theme</text><text x="20" y="88" font-size="13">clinical</text><rect x="170" y="70" width="462.2" height="24" fill="#2F6F73"/><text x="642.2" y="88" font-size="12">8</text><text x="20" y="130" font-size="13">decision_support</text><rect x="170" y="112" width="173.3" height="24" fill="#2F6F73"/><text x="353.3" y="130" font-size="12">3</text><text x="20" y="172" font-size="13">risk</text><rect x="170" y="154" width="231.1" height="24" fill="#2F6F73"/><text x="411.1" y="172" font-size="12">4</text><text x="20" y="214" font-size="13">ethics</text><rect x="170" y="196" width="346.7" height="24" fill="#2F6F73"/><text x="526.7" y="214" font-size="12">6</text><text x="20" y="256" font-size="13">evaluation</text><rect x="170" y="238" width="520.0" height="24" fill="#2F6F73"/><text x="700.0" y="256" font-size="12">9</text><text x="20" y="298" font-size="13">governance</text><rect x="170" y="280" width="57.8" height="24" fill="#2F6F73"/><text x="237.8" y="298" font-size="12">1</text><text x="20" y="340" font-size="13">hallucination</text><rect x="170" y="322" width="115.6" height="24" fill="#2F6F73"/><text x="295.6" y="340" font-size="12">2</text><text x="20" y="382" font-size="13">reporting</text><rect x="170" y="364" width="173.3" height="24" fill="#2F6F73"/><text x="353.3" y="382" font-size="12">3</text><text x="170" y="436" font-size="12">Sources</text></svg>