<svg xmlns="http://www.w3.org/2000/svg" width="900" height="560"><defs><marker id="arrow" markerWidth="10" markerHeight="10" refX="7" refY="3" orient="auto"><path d="M0,0 L0,6 L7,3 z" fill="#334"/></marker></defs><rect width="100%" height="100%" fill="white"/><text x="40" y="38" font-size="20" font-weight="bold">Evaluation Pipeline</text><line x1="135.0" y1="364.0" x2="342.0" y2="364.0" stroke="#334" stroke-width="2" marker-end="url(#arrow)"/><line x1="342.0" y1="364.0" x2="540.0" y2="364.0" stroke="#334" stroke-width="2" marker-end="url(#arrow)"/><line x1="540.0" y1="364.0" x2="720.0" y2="364.0" stroke="#334" stroke-width="2" marker-end="url(#arrow)"/><line x1="720.0" y1="364.0" x2="432.0" y2="168.0" stroke="#334" stroke-width="2" marker-end="url(#arrow)"/><text x="576.0" y="258.0" font-size="11" fill="#334">fail</text><line x1="720.0" y1="364.0" x2="810.0" y2="168.0" stroke="#334" stroke-width="2" marker-end="url(#arrow)"/><text x="765.0000000000001" y="258.0" font-size="11" fill="#334">pass</text><line x1="432.0" y1="168.0" x2="135.0" y2="364.0" stroke="#334" stroke-width="2" marker-end="url(#arrow)"/><rect x="59.0" y="340.0" rx="8" ry="8" width="152" height="48" fill="#2F6F73" stroke="#1D3F42"/><text x="135.0" y="369.0" text-anchor="middle" font-size="12" fill="white">Report</text><rect x="266.0" y="340.0" rx="8" ry="8" width="152" height="48" fill="#2F6F73" stroke="#1D3F42"/><text x="342.0" y="369.0" text-anchor="middle" font-size="12" fill="white">Rubric</text><rect x="464.0" y="340.0" rx="8" ry="8" width="152" height="48" fill="#2F6F73" stroke="#1D3F42"/><text x="540.0" y="369.0" text-anchor="middle" font-size="12" fill="white">Score</text><rect x="644.0" y="340.0" rx="8" ry="8" width="152" height="48" fill="#2F6F73" stroke="#1D3F42"/><text x="720.0" y="369.0" text-anchor="middle" font-size="12" fill="white">Threshold</text><rect x="356.0" y="144.0" rx="8" ry="8" width="152" height="48" fill="#2F6F73" stroke="#1D3F42"/><text x="432.0" y="173.0" text-anchor="middle" font-size="12" fill="white">Revise</text><rect x="734.0" y="144.0" rx="8" ry="8" width="152" height="48" fill="#2F6F73" stroke="#1D3F42"/><text x="810.0" y="173.0" text-anchor="middle" font-size="12" fill="white">Release</text></svg>