<svg xmlns="http://www.w3.org/2000/svg" width="900" height="560"><defs><marker id="arrow" markerWidth="10" markerHeight="10" refX="7" refY="3" orient="auto"><path d="M0,0 L0,6 L7,3 z" fill="#334"/></marker></defs><rect width="100%" height="100%" fill="white"/><text x="40" y="38" font-size="20" font-weight="bold">Agent Communication Diagram</text><line x1="180.0" y1="436.8" x2="450.0" y2="280.0" stroke="#334" stroke-width="2" marker-end="url(#arrow)"/><text x="315.0" y="350.40000000000003" font-size="11" fill="#334">plan</text><line x1="450.0" y1="459.2" x2="450.0" y2="280.0" stroke="#334" stroke-width="2" marker-end="url(#arrow)"/><text x="450.0" y="361.59999999999997" font-size="11" fill="#334">sources</text><line x1="720.0" y1="436.8" x2="450.0" y2="280.0" stroke="#334" stroke-width="2" marker-end="url(#arrow)"/><text x="585.0" y="350.40000000000003" font-size="11" fill="#334">tables</text><line x1="180.0" y1="140.0" x2="450.0" y2="280.0" stroke="#334" stroke-width="2" marker-end="url(#arrow)"/><text x="315.0" y="202.0" font-size="11" fill="#334">critique</text><line x1="450.0" y1="100.8" x2="450.0" y2="280.0" stroke="#334" stroke-width="2" marker-end="url(#arrow)"/><text x="450.0" y="182.39999999999998" font-size="11" fill="#334">checks</text><line x1="720.0" y1="140.0" x2="450.0" y2="280.0" stroke="#334" stroke-width="2" marker-end="url(#arrow)"/><text x="585.0" y="202.0" font-size="11" fill="#334">report</text><rect x="374.0" y="256.0" rx="8" ry="8" width="152" height="48" fill="#2F6F73" stroke="#1D3F42"/><text x="450.0" y="285.0" text-anchor="middle" font-size="12" fill="white">WorkflowState</text><rect x="104.0" y="412.8" rx="8" ry="8" width="152" height="48" fill="#2F6F73" stroke="#1D3F42"/><text x="180.0" y="441.8" text-anchor="middle" font-size="12" fill="white">Planner</text><rect x="374.0" y="435.2" rx="8" ry="8" width="152" height="48" fill="#2F6F73" stroke="#1D3F42"/><text x="450.0" y="464.2" text-anchor="middle" font-size="12" fill="white">Research</text><rect x="644.0" y="412.8" rx="8" ry="8" width="152" height="48" fill="#2F6F73" stroke="#1D3F42"/><text x="720.0" y="441.8" text-anchor="middle" font-size="12" fill="white">Analyst</text><rect x="104.0" y="116.0" rx="8" ry="8" width="152" height="48" fill="#2F6F73" stroke="#1D3F42"/><text x="180.0" y="145.0" text-anchor="middle" font-size="12" fill="white">Critic</text><rect x="374.0" y="76.8" rx="8" ry="8" width="152" height="48" fill="#2F6F73" stroke="#1D3F42"/><text x="450.0" y="105.8" text-anchor="middle" font-size="12" fill="white">Fact Checker</text><rect x="644.0" y="116.0" rx="8" ry="8" width="152" height="48" fill="#2F6F73" stroke="#1D3F42"/><text x="720.0" y="145.0" text-anchor="middle" font-size="12" fill="white">Writer</text></svg>