<svg xmlns="http://www.w3.org/2000/svg" width="900" height="560"><defs><marker id="arrow" markerWidth="10" markerHeight="10" refX="7" refY="3" orient="auto"><path d="M0,0 L0,6 L7,3 z" fill="#334"/></marker></defs><rect width="100%" height="100%" fill="white"/><text x="40" y="38" font-size="20" font-weight="bold">Report Generation Pipeline</text><line x1="108.0" y1="336.0" x2="252.00000000000003" y2="336.0" stroke="#334" stroke-width="2" marker-end="url(#arrow)"/><line x1="252.00000000000003" y1="336.0" x2="396.0" y2="336.0" stroke="#334" stroke-width="2" marker-end="url(#arrow)"/><line x1="396.0" y1="336.0" x2="540.0" y2="336.0" stroke="#334" stroke-width="2" marker-end="url(#arrow)"/><line x1="540.0" y1="336.0" x2="684.0" y2="336.0" stroke="#334" stroke-width="2" marker-end="url(#arrow)"/><line x1="684.0" y1="336.0" x2="828.0" y2="336.0" stroke="#334" stroke-width="2" marker-end="url(#arrow)"/><rect x="32.0" y="312.0" rx="8" ry="8" width="152" height="48" fill="#2F6F73" stroke="#1D3F42"/><text x="108.0" y="341.0" text-anchor="middle" font-size="12" fill="white">Sources</text><rect x="176.00000000000003" y="312.0" rx="8" ry="8" width="152" height="48" fill="#2F6F73" stroke="#1D3F42"/><text x="252.00000000000003" y="341.0" text-anchor="middle" font-size="12" fill="white">Claims</text><rect x="320.0" y="312.0" rx="8" ry="8" width="152" height="48" fill="#2F6F73" stroke="#1D3F42"/><text x="396.0" y="341.0" text-anchor="middle" font-size="12" fill="white">Checks</text><rect x="464.0" y="312.0" rx="8" ry="8" width="152" height="48" fill="#2F6F73" stroke="#1D3F42"/><text x="540.0" y="341.0" text-anchor="middle" font-size="12" fill="white">Tables</text><rect x="608.0" y="312.0" rx="8" ry="8" width="152" height="48" fill="#2F6F73" stroke="#1D3F42"/><text x="684.0" y="341.0" text-anchor="middle" font-size="12" fill="white">Figures</text><rect x="752.0" y="312.0" rx="8" ry="8" width="152" height="48" fill="#2F6F73" stroke="#1D3F42"/><text x="828.0" y="341.0" text-anchor="middle" font-size="12" fill="white">LaTeX/PDF</text></svg>